<svg width="56" height="20">
  <rect width="4" height="4" x="2" y="2" style="fill:#ca3038;" />
  <rect width="4" height="4" x="8" y="2" style="fill:#ca3038;" />
  <rect width="4" height="4" x="14" y="2" style="fill:#ca3038;" />
  <rect width="4" height="4" x="20" y="2" style="fill:#dddddd;" />
  <rect width="4" height="4" x="26" y="2" style="fill:#dddddd;" />
  <rect width="4" height="4" x="32" y="2" style="fill:#dddddd;" />
  <rect width="4" height="4" x="38" y="2" style="fill:#dddddd;" />
  <rect width="4" height="4" x="44" y="2" style="fill:#dddddd;" />
  <rect width="4" height="4" x="50" y="2" style="fill:#dddddd;" />
  
  <rect width="4" height="4" x="2" y="8" style="fill:#ca3038;" />
  <rect width="4" height="4" x="8" y="8" style="fill:#ca3038;" />
  <rect width="4" height="4" x="14" y="8" style="fill:#ca3038;" />
  <rect width="4" height="4" x="20" y="8" style="fill:#dddddd;" />
  <rect width="4" height="4" x="26" y="8" style="fill:#dddddd;" />
  <rect width="4" height="4" x="32" y="8" style="fill:#dddddd;" />
  <rect width="4" height="4" x="38" y="8" style="fill:#dddddd;" />
  <rect width="4" height="4" x="44" y="8" style="fill:#dddddd;" />
  <rect width="4" height="4" x="50" y="8" style="fill:#dddddd;" />
  
  <rect width="4" height="4" x="2" y="14" style="fill:#ca3038;" />
  <rect width="4" height="4" x="8" y="14" style="fill:#ca3038;" />
  <rect width="4" height="4" x="14" y="14" style="fill:#ca3038;" />
  <rect width="4" height="4" x="20" y="14" style="fill:#dddddd;" />
  <rect width="4" height="4" x="26" y="14" style="fill:#dddddd;" />
  <rect width="4" height="4" x="32" y="14" style="fill:#dddddd;" />
  <rect width="4" height="4" x="38" y="14" style="fill:#dddddd;" />
  <rect width="4" height="4" x="44" y="14" style="fill:#dddddd;" />
  <rect width="4" height="4" x="50" y="14" style="fill:#dddddd;" />
</svg>