<svg width="56" height="20">
  <rect width="8" height="4" x="2" y="2" style="fill:#ca3038;" />
  <rect width="8" height="4" x="13" y="2" style="fill:#555555;" />
  <rect width="8" height="4" x="24" y="2" style="fill:#555555;" />
  <rect width="8" height="4" x="35" y="2" style="fill:#555555;" />
  <rect width="8" height="4" x="46" y="2" style="fill:#555555;" />
  
  <rect width="8" height="4" x="2" y="8" style="fill:#ca3038;" />
  <rect width="8" height="4" x="13" y="8" style="fill:#555555;" />
  <rect width="8" height="4" x="24" y="8" style="fill:#555555;" />
  <rect width="8" height="4" x="35" y="8" style="fill:#555555;" />
  <rect width="8" height="4" x="46" y="8" style="fill:#555555" />
  
  <rect width="8" height="4" x="2" y="14" style="fill:#ca3038;" />
  <rect width="8" height="4" x="13" y="14" style="fill:#555555;" />
  <rect width="8" height="4" x="24" y="14" style="fill:#555555;" />
  <rect width="8" height="4" x="35" y="14" style="fill:#555555" />
  <rect width="8" height="4" x="46" y="14" style="fill:#555555;" />
</svg>